# xmcd
#
# Track frame offsets:
#	150
#	13236
#	27681
#	43143
#	61377
#	75642
#	86830
#	110181
#	128582
#	144291
#	161395
#	176454
#	195218
#	210530
#	225062
#	238831
#
# Disc length: 3476 seconds
#
# Revision: 1
# Processed by: cddbd v1.5.2PL0 Copyright (c) Steve Scherf et al.
# Submitted via: audiograbber 1.83.01
#
DISCID=ce0d9210
DTITLE=Leon Laudenbach - The Gospel Truth According To Leon
DYEAR=2007
DGENRE=Rock
TTITLE0=German Ingenuity
TTITLE1=A Path On The Outside
TTITLE2=2012
TTITLE3=The Good Times And The Bad,Bad,Bad
TTITLE4=The Gospel Truth According To Leon
TTITLE5=Barb Wire
TTITLE6=Shade For The Stone
TTITLE7=7 Buckets Of Blood
TTITLE8=Cellulite Soul Sisters
TTITLE9=Half The Way There
TTITLE10=Quadrophonic Stereo
TTITLE11=Iron Lungs Cold
TTITLE12=McDonald Pub
TTITLE13=Pretty Name For Whiskey
TTITLE14=Blocked Out The Sun
TTITLE15=The Mystery In Your Eyes
EXTD=
EXTT0=
EXTT1=
EXTT2=
EXTT3=
EXTT4=
EXTT5=
EXTT6=
EXTT7=
EXTT8=
EXTT9=
EXTT10=
EXTT11=
EXTT12=
EXTT13=
EXTT14=
EXTT15=
PLAYORDER=
